<svg width="10" height="16" viewBox="0 0 10 16" fill="none" xmlns="http://www.w3.org/2000/svg"><path d="M5 2.42c.96 0 1.74.77 1.74 1.71S5.96 5.83 5 5.83s-1.74-.76-1.74-1.7S4.04 2.42 5 2.42Zm0 5.84a4.18 4.18 0 0 0 4.21-4.13A4.18 4.18 0 0 0 5 0 4.17 4.17 0 0 0 .79 4.13 4.17 4.17 0 0 0 5 8.26Zm1.7 3.37c.86-.2 1.69-.53 2.45-1 .58-.35.75-1.1.39-1.66a1.25 1.25 0 0 0-1.7-.39 5.44 5.44 0 0 1-5.68 0 1.24 1.24 0 0 0-1.7.39 1.2 1.2 0 0 0 .39 1.66c.76.47 1.59.8 2.45 1l-2.36 2.3a1.2 1.2 0 0 0 0 1.71 1.25 1.25 0 0 0 1.75 0L5 13.38l2.32 2.26c.48.48 1.26.48 1.74 0a1.2 1.2 0 0 0 0-1.7L6.7 11.62Z" fill="#fff"/></svg>
