<svg width="16" height="16" viewBox="0 0 16 16" fill="none" xmlns="http://www.w3.org/2000/svg"><path d="M9.415.364c-.466 0-.904.248-1.185.606-.28.359-.435.795-.548 1.256-.18.74-.234 1.56-.248 2.3-1.31.092-2.498.5-3.483 1.13-.4-.352-.882-.548-1.344-.543-.527.005-1.026.243-1.398.732-.71.934-.627 2.46.195 3.368-.05.28-.088.568-.088.858 0 3.076 2.993 5.565 6.684 5.565 3.692 0 6.685-2.492 6.685-5.565 0-.29-.038-.578-.088-.858.822-.907.904-2.434.194-3.368-.371-.49-.87-.727-1.397-.732-.462-.005-.944.19-1.344.544a7.403 7.403 0 0 0-3.466-1.13c.018-.683.064-1.391.194-1.925.082-.335.18-.578.283-.711.104-.134.18-.188.354-.188.378 0 .427.128.654.439.115.157.248.353.46.544.212.19.526.356.867.356v-1.34c-.095 0-.113-.002-.177-.062-.064-.06-.153-.199-.283-.377-.261-.358-.767-.9-1.521-.9Zm3.678.125c-.88 0-1.591.842-1.591 1.883 0 1.04.712 1.883 1.591 1.883.88 0 1.592-.842 1.592-1.883 0-1.04-.712-1.883-1.592-1.883Zm0 .67c.566 0 1.026.544 1.026 1.213 0 .67-.46 1.213-1.026 1.213-.566 0-1.025-.543-1.025-1.213s.46-1.213 1.025-1.213ZM8 5.573c3.133 0 5.783 2.063 5.783 4.498 0 2.438-2.65 4.498-5.783 4.498-3.132 0-5.783-2.06-5.783-4.498 0-2.435 2.65-4.498 5.783-4.498Zm-5.376.607c.157.002.32.044.478.125a5.449 5.449 0 0 0-1.327 1.758c-.212-.518-.154-1.164.106-1.507a.903.903 0 0 1 .743-.376Zm10.752 0a.903.903 0 0 1 .743.376c.261.343.318.989.106 1.507A5.45 5.45 0 0 0 12.9 6.305c.157-.08.32-.123.477-.125Zm-7.64 1.673c-.565 0-1.025.544-1.025 1.214 0 .67.46 1.213 1.026 1.213.566 0 1.025-.544 1.025-1.213 0-.67-.46-1.214-1.025-1.214Zm4.528 0c-.566 0-1.026.544-1.026 1.214 0 .67.46 1.213 1.026 1.213.566 0 1.026-.544 1.026-1.213 0-.67-.46-1.214-1.026-1.214Zm-5.076 4.122c.36.881 1.475 1.736 2.812 1.736 1.338 0 2.47-.855 2.83-1.736-.655.5-1.687.837-2.83.837s-2.157-.337-2.812-.837Z" fill="#fff"/></svg>
