<svg width="16" height="10" viewBox="0 0 16 10" fill="none" xmlns="http://www.w3.org/2000/svg"><path d="M15.86 8.42c-.05-.07-.31-.62-1.6-1.76-1.33-1.19-1.15-1 .46-3.05.99-1.25 1.38-2.02 1.26-2.34-.12-.32-.84-.23-.84-.23l-2.4.01s-.19-.02-.32.05c-.13.08-.21.25-.21.25s-.38.97-.9 1.8c-1.06 1.73-1.5 1.82-1.67 1.72-.4-.26-.3-1.02-.3-1.55 0-1.69.27-2.4-.52-2.57-.26-.06-.46-.1-1.13-.11-.85-.01-1.58 0-2 .2-.27.12-.48.4-.35.42.16.02.52.1.71.34.25.33.24 1.05.24 1.05s.14 1.98-.33 2.23c-.33.17-.77-.18-1.73-1.76-.48-.8-.85-1.7-.85-1.7s-.08-.17-.2-.25c-.16-.11-.37-.15-.37-.15l-2.29.02s-.34 0-.47.15c-.11.13 0 .39 0 .39s1.78 4 3.81 6.02c1.86 1.85 3.97 1.73 3.97 1.73h.95s.3-.03.44-.19c.14-.14.13-.4.13-.4s-.02-1.22.58-1.4c.59-.18 1.34 1.18 2.14 1.7.6.4 1.06.32 1.06.32l2.14-.03s1.12-.07.59-.9Z" fill="#fff"/></svg>
